<svg xmlns="http://www.w3.org/2000/svg" width="1280" height="420" viewBox="0 0 1280 420" role="img" aria-labelledby="title desc">
  <title id="title">PC Status</title>
  <desc id="desc">A clean Windows tray status widget banner.</desc>
  <rect width="1280" height="420" rx="34" fill="#f7f8f5"/>
  <rect x="38" y="38" width="1204" height="344" rx="28" fill="#ffffff" stroke="#dfe2dc"/>
  <circle cx="112" cy="112" r="23" fill="#1f8a70"/>
  <path d="M92 216h42l16-42 26 86 18-44h48" fill="none" stroke="#1f8a70" stroke-width="12" stroke-linecap="round" stroke-linejoin="round"/>
  <text x="170" y="112" fill="#181a18" font-family="Segoe UI, Arial, sans-serif" font-size="54" font-weight="700">PC Status</text>
  <text x="172" y="162" fill="#60645f" font-family="Segoe UI, Arial, sans-serif" font-size="23">A minimal Windows tray flyout for power, usage, and system load.</text>
  <g transform="translate(760 78)">
    <rect width="350" height="264" rx="24" fill="#fbfbfa" stroke="#dfe2dc"/>
    <circle cx="38" cy="44" r="12" fill="#1f8a70"/>
    <text x="62" y="51" fill="#181a18" font-family="Segoe UI, Arial, sans-serif" font-size="24" font-weight="700">PC Status</text>
    <text x="62" y="80" fill="#60645f" font-family="Segoe UI, Arial, sans-serif" font-size="14">Healthy - CPU 34%, RAM 62%</text>
    <rect x="28" y="110" width="294" height="74" rx="18" fill="#eef8f4" stroke="#dce9e3"/>
    <text x="48" y="138" fill="#181a18" font-family="Segoe UI, Arial, sans-serif" font-size="16" font-weight="700">Battery + Power</text>
    <text x="48" y="170" fill="#1f8a70" font-family="Segoe UI, Arial, sans-serif" font-size="34" font-weight="800">100%</text>
    <rect x="28" y="204" width="86" height="42" rx="12" fill="#ffffff" stroke="#dfe2dc"/>
    <rect x="132" y="204" width="86" height="42" rx="12" fill="#ffffff" stroke="#dfe2dc"/>
    <rect x="236" y="204" width="86" height="42" rx="12" fill="#ffffff" stroke="#dfe2dc"/>
  </g>
</svg>
