<svg xmlns="http://www.w3.org/2000/svg" width="520" height="650" viewBox="0 0 520 650" role="img" aria-labelledby="title desc">
  <title id="title">PC Status settings flyout preview</title>
  <desc id="desc">The PC Status settings page with theme, startup, performance, dashboard card, tray, and diagnostics controls.</desc>
  <rect width="520" height="650" rx="28" fill="#fbfbfa" stroke="#dfe2dc"/>
  <g transform="translate(28 24)">
    <circle cx="16" cy="20" r="12" fill="#1f8a70"/>
    <text x="48" y="26" fill="#191919" font-family="Segoe UI, Arial, sans-serif" font-size="25" font-weight="700">Settings</text>
    <text x="48" y="56" fill="#60625e" font-family="Segoe UI, Arial, sans-serif" font-size="15">Customize PC Status</text>
    <text x="452" y="26" fill="#60625e" font-family="Segoe UI, Arial, sans-serif" font-size="20" text-anchor="middle">&lt;</text>
  </g>
  <line x1="0" x2="520" y1="92" y2="92" stroke="#ecedea"/>
  <g transform="translate(32 116)">
    <rect width="456" height="82" rx="16" fill="#ffffff" stroke="#dfe2dc"/>
    <text x="22" y="30" fill="#191919" font-family="Segoe UI, Arial, sans-serif" font-size="16" font-weight="700">Appearance</text>
    <text x="22" y="51" fill="#60625e" font-family="Segoe UI, Arial, sans-serif" font-size="12">Choose how the flyout should adapt to Windows.</text>
    <rect x="278" y="24" width="146" height="36" rx="9" fill="#fbfbfa" stroke="#dfe2dc"/>
    <text x="298" y="47" fill="#191919" font-family="Segoe UI, Arial, sans-serif" font-size="14">Auto</text>
  </g>
  <g transform="translate(32 212)">
    <rect width="456" height="92" rx="16" fill="#ffffff" stroke="#dfe2dc"/>
    <text x="22" y="30" fill="#191919" font-family="Segoe UI, Arial, sans-serif" font-size="16" font-weight="700">Startup</text>
    <text x="22" y="51" fill="#60625e" font-family="Segoe UI, Arial, sans-serif" font-size="12">Control how PC Status starts and whether it requests UAC.</text>
    <rect x="22" y="66" width="16" height="16" rx="4" fill="#1f8a70"/>
    <path d="M26 74l4 4 8-10" fill="none" stroke="#ffffff" stroke-width="2" stroke-linecap="round"/>
    <text x="48" y="80" fill="#191919" font-family="Segoe UI, Arial, sans-serif" font-size="13">Run elevated on launch</text>
  </g>
  <g transform="translate(32 318)">
    <rect width="456" height="82" rx="16" fill="#ffffff" stroke="#dfe2dc"/>
    <text x="22" y="30" fill="#191919" font-family="Segoe UI, Arial, sans-serif" font-size="16" font-weight="700">Performance</text>
    <text x="22" y="51" fill="#60625e" font-family="Segoe UI, Arial, sans-serif" font-size="12">Eco uses less polling. Fast updates more often.</text>
    <rect x="278" y="24" width="146" height="36" rx="9" fill="#fbfbfa" stroke="#dfe2dc"/>
    <text x="298" y="47" fill="#191919" font-family="Segoe UI, Arial, sans-serif" font-size="14">Balanced</text>
  </g>
  <g transform="translate(32 414)">
    <rect width="456" height="112" rx="16" fill="#ffffff" stroke="#dfe2dc"/>
    <text x="22" y="30" fill="#191919" font-family="Segoe UI, Arial, sans-serif" font-size="16" font-weight="700">Dashboard Cards</text>
    <text x="22" y="51" fill="#60625e" font-family="Segoe UI, Arial, sans-serif" font-size="12">Hide anything you do not want in the compact flyout.</text>
    <g fill="#1f8a70">
      <rect x="22" y="70" width="16" height="16" rx="4"/>
      <rect x="226" y="70" width="16" height="16" rx="4"/>
      <rect x="22" y="94" width="16" height="16" rx="4"/>
    </g>
    <g fill="none" stroke="#ffffff" stroke-width="2" stroke-linecap="round">
      <path d="M26 78l4 4 8-10"/>
      <path d="M230 78l4 4 8-10"/>
      <path d="M26 102l4 4 8-10"/>
    </g>
    <text x="48" y="84" fill="#191919" font-family="Segoe UI, Arial, sans-serif" font-size="13">Battery + Power</text>
    <text x="252" y="84" fill="#191919" font-family="Segoe UI, Arial, sans-serif" font-size="13">CPU usage</text>
    <text x="48" y="108" fill="#191919" font-family="Segoe UI, Arial, sans-serif" font-size="13">Memory</text>
  </g>
  <g transform="translate(32 540)">
    <rect width="456" height="70" rx="16" fill="#ffffff" stroke="#dfe2dc"/>
    <text x="22" y="30" fill="#191919" font-family="Segoe UI, Arial, sans-serif" font-size="16" font-weight="700">Diagnostics</text>
    <rect x="220" y="20" width="86" height="32" rx="9" fill="#fbfbfa" stroke="#dfe2dc"/>
    <rect x="318" y="20" width="106" height="32" rx="9" fill="#fbfbfa" stroke="#dfe2dc"/>
    <text x="263" y="41" fill="#191919" font-family="Segoe UI, Arial, sans-serif" font-size="12" text-anchor="middle">Open Logs</text>
    <text x="371" y="41" fill="#191919" font-family="Segoe UI, Arial, sans-serif" font-size="12" text-anchor="middle">Reset</text>
  </g>
</svg>
